# xmcd
#
# Track frame offsets: 
#        150
#        9965
#        20272
#        31127
#        40738
#        50962
#        61749
#        74207
#        84680
#        95447
#        106925
#        118100
#        129733
#        140933
#        151293
#        163050
#        173604
#        184189
#        193963
#        204101
#        214715
#        226491
#        235368
#        245520
#        256975
#        267143
#        278416
#        289783
#        301254
#        312738
#        324367
#        335091
#        345625
#
# Disc length: 4765 seconds
#
# Revision: 2
# Processed by: cddbd v1.5.2PL0 Copyright (c) Steve Scherf et al.
# Submitted via: ExactAudioCopyFreeDBPlugin 1.0
#
DISCID=e9129b21
DTITLE=Conway Twitty - The Ballads Of Conway Twitty - BCD15982
DYEAR=2010
DGENRE=Country
TTITLE0=It's Only Make Believe
TTITLE1=I'll Try
TTITLE2=Will You Love Me Then, As You Love Me Now
TTITLE3=When I'm Not With You
TTITLE4=The Story Of My Love
TTITLE5=My One And Only You
TTITLE6=Just In Time
TTITLE7=Judge Of Hearts
TTITLE8=First Romance
TTITLE9=I Need You So
TTITLE10=Why Can't I Get Through To You
TTITLE11=You'll Never Walk Alone
TTITLE12=Heavenly
TTITLE13=Halfway To Heaven
TTITLE14=Blueberry Hill
TTITLE15=You Win Again
TTITLE16=Restless
TTITLE17=Easy To Fall In Love
TTITLE18=Lonely Blue Boy
TTITLE19=Blue Moon
TTITLE20=What Am I Living For
TTITLE21=I'd Still Play The Fool
TTITLE22=Knock Three Times
TTITLE23=What A Dream
TTITLE24=C'est Si Bon
TTITLE25=Unchained Melody
TTITLE26=Portrait Of A Fool
TTITLE27=There Is Something On Your Mind
TTITLE28=Lookin' Back
TTITLE29=Pledging My Love
TTITLE30=It's Too Late
TTITLE31=I Hope, I Think, I Wish
TTITLE32=Is A Blue Bird Blue
EXTD=
EXTT0=
EXTT1=
EXTT2=
EXTT3=
EXTT4=
EXTT5=
EXTT6=
EXTT7=
EXTT8=
EXTT9=
EXTT10=
EXTT11=
EXTT12=
EXTT13=
EXTT14=
EXTT15=
EXTT16=
EXTT17=
EXTT18=
EXTT19=
EXTT20=
EXTT21=
EXTT22=
EXTT23=
EXTT24=
EXTT25=
EXTT26=
EXTT27=
EXTT28=
EXTT29=
EXTT30=
EXTT31=
EXTT32=
PLAYORDER=
